# xmcd CD database file generated by MAGIX-FreeDB-MP3_Maker_12 v2.0beta1
# 
# Track frame offsets:
#      150
#      17762
#      33972
#      48964
#      67799
#      81064
#      91158
#      104915
#      120289
#      137099
#      160961
#      173015
#      185074
#      200490
#      223463
# 
# Disc length: 3164 seconds
# 
# Revision: 3 
# Processed by: cddbd v1.5.2PL0 Copyright (c) Steve Scherf et al.
# Submitted via: MAGIX-FreeDB-MP3_Maker_12 v2.0beta1
# 
DISCID=cc0c5a0f
DTITLE=Various Artist - Hit Era 50s 60s and 70s  CD4
DYEAR=2007
DGENRE=Oldies
TTITLE0=Demis Roussos - Goodbye My Love Goodbye
TTITLE1=Baccara - Sorry, I'm A Lady
TTITLE2=Tony Orlando and Dawn - Tie A Yellow Ribbon Round The Old Oak Tree
TTITLE3=Lobo - I'd Love You To Want Me
TTITLE4=Ike and Tina Turner - Nutbush City Limits
TTITLE5=Marc Bolan and T. Rex - Solid Gold, Easy Action
TTITLE6=Barry Blue - Dancing On A Saturday Night
TTITLE7=Medicine Head - One And One Is One
TTITLE8=Timmy Thomas - Why Can't We Live Together?
TTITLE9=10CC - Rubber Bullets
TTITLE10=Bay City Rollers - Bye Bye Baby
TTITLE11=Alvin Stardust - Jealous Mind
TTITLE12=Mott the Hoople - The Golden Age of Rock N Roll
TTITLE13=Roy Wood and Wizzard - Rock N Roll Winter
TTITLE14=Alice Cooper - No More Mr. Nice Guy
EXTD=
EXTT0=
EXTT1=
EXTT2=
EXTT3=
EXTT4=
EXTT5=
EXTT6=
EXTT7=
EXTT8=
EXTT9=
EXTT10=
EXTT11=
EXTT12=
EXTT13=
EXTT14=
PLAYORDER=
